<svg xmlns="http://www.w3.org/2000/svg" width="30" height="30" viewBox="0 0 30 30"><path d="M14.955 27.88c-.93 0-1.859-.372-2.603-1.115L1.94 16.166c-.186-.186-.186-.372-.372-.558C.08 13.563-.292 11.146.452 8.728c.744-2.974 3.161-5.391 6.322-5.95.558-.185 1.116-.185 1.674-.185 3.16 0 5.206 1.86 6.507 3.533 1.302-1.674 3.347-3.533 6.508-3.533.558 0 1.302 0 1.86.186 2.975.743 5.392 2.975 6.135 5.95.744 2.603.372 5.02-1.115 7.065a.4.4 0 0 1-.372.372L17.558 26.765c-.743.743-1.673 1.115-2.603 1.115" fill="#f00"/></svg>