<svg xmlns="http://www.w3.org/2000/svg" width="30" height="30" viewBox="0 0 30 30"><path d="M4.801 13.406L15.03 23.82l10.228-10.414c.93-1.116 1.116-2.604.744-3.906a4.403 4.403 0 0 0-3.347-3.347c-.372-.187-.744-.187-1.116-.187-3.162 0-4.65 4.278-4.835 4.278-.186.744-.93 1.302-1.674 1.302-.744 0-1.488-.558-1.86-1.302 0 0-1.302-4.278-4.65-4.278-.371 0-.743 0-.93.187-1.673.371-3.16 1.673-3.533 3.161-.372 1.488-.186 2.976.744 4.092M15.03 27.54c-.93 0-1.86-.372-2.604-1.116l-10.414-10.6c-.186-.187-.186-.373-.372-.559C.152 13.22-.22 10.802.524 8.385c.744-2.976 3.161-5.394 6.323-5.952.558-.186 1.116-.186 1.674-.186 3.161 0 5.207 1.86 6.509 3.534 1.302-1.674 3.347-3.534 6.509-3.534.558 0 1.302 0 1.86.186 2.975.744 5.393 2.976 6.137 5.951.744 2.604.372 5.022-1.116 7.067a.4.4 0 0 1-.372.372l-10.415 10.6c-.744.745-1.673 1.117-2.603 1.117" fill="#8d94a1"/></svg>